<?xml version="1.0" encoding="UTF-8"?>
<svg xmlns="http://www.w3.org/2000/svg" xmlns:xlink="http://www.w3.org/1999/xlink" width="75pt" height="74.999997pt" viewBox="0 0 75 74.999997" version="1.2">
<defs>
<clipPath id="clip1">
  <path d="M 75 37.5 C 75 38.726562 74.941406 39.953125 74.820312 41.175781 C 74.699219 42.398438 74.519531 43.609375 74.28125 44.816406 C 74.039062 46.019531 73.742188 47.210938 73.386719 48.386719 C 73.027344 49.5625 72.617188 50.714844 72.144531 51.851562 C 71.675781 52.984375 71.152344 54.09375 70.570312 55.175781 C 69.992188 56.261719 69.363281 57.3125 68.679688 58.332031 C 67.996094 59.355469 67.265625 60.339844 66.488281 61.289062 C 65.707031 62.238281 64.886719 63.148438 64.015625 64.015625 C 63.148438 64.886719 62.238281 65.707031 61.289062 66.488281 C 60.339844 67.265625 59.355469 67.996094 58.332031 68.679688 C 57.3125 69.363281 56.261719 69.992188 55.175781 70.570312 C 54.09375 71.152344 52.984375 71.675781 51.851562 72.144531 C 50.714844 72.617188 49.5625 73.027344 48.386719 73.386719 C 47.210938 73.742188 46.019531 74.039062 44.816406 74.28125 C 43.609375 74.519531 42.398438 74.699219 41.175781 74.820312 C 39.953125 74.941406 38.726562 75 37.5 75 C 36.273438 75 35.046875 74.941406 33.824219 74.820312 C 32.601562 74.699219 31.390625 74.519531 30.183594 74.28125 C 28.980469 74.039062 27.789062 73.742188 26.613281 73.386719 C 25.4375 73.027344 24.285156 72.617188 23.148438 72.144531 C 22.015625 71.675781 20.90625 71.152344 19.824219 70.570312 C 18.738281 69.992188 17.6875 69.363281 16.667969 68.679688 C 15.644531 67.996094 14.660156 67.265625 13.710938 66.488281 C 12.761719 65.707031 11.851562 64.886719 10.984375 64.015625 C 10.113281 63.148438 9.292969 62.238281 8.511719 61.289062 C 7.734375 60.339844 7.003906 59.355469 6.320312 58.332031 C 5.636719 57.3125 5.007812 56.261719 4.429688 55.175781 C 3.847656 54.09375 3.324219 52.984375 2.855469 51.851562 C 2.382812 50.714844 1.972656 49.5625 1.613281 48.386719 C 1.257812 47.210938 0.960938 46.019531 0.71875 44.816406 C 0.480469 43.609375 0.300781 42.398438 0.179688 41.175781 C 0.0585938 39.953125 0 38.726562 0 37.5 C 0 36.273438 0.0585938 35.046875 0.179688 33.824219 C 0.300781 32.601562 0.480469 31.390625 0.71875 30.183594 C 0.960938 28.980469 1.257812 27.789062 1.613281 26.613281 C 1.972656 25.4375 2.382812 24.285156 2.855469 23.148438 C 3.324219 22.015625 3.847656 20.90625 4.429688 19.824219 C 5.007812 18.738281 5.636719 17.6875 6.320312 16.667969 C 7.003906 15.644531 7.734375 14.660156 8.511719 13.710938 C 9.292969 12.761719 10.113281 11.851562 10.984375 10.984375 C 11.851562 10.113281 12.761719 9.292969 13.710938 8.511719 C 14.660156 7.734375 15.644531 7.003906 16.667969 6.320312 C 17.6875 5.636719 18.738281 5.007812 19.824219 4.429688 C 20.90625 3.847656 22.015625 3.324219 23.148438 2.855469 C 24.285156 2.382812 25.4375 1.972656 26.613281 1.613281 C 27.789062 1.257812 28.980469 0.960938 30.183594 0.71875 C 31.390625 0.480469 32.601562 0.300781 33.824219 0.179688 C 35.046875 0.0585938 36.273438 0 37.5 0 C 38.726562 0 39.953125 0.0585938 41.175781 0.179688 C 42.398438 0.300781 43.609375 0.480469 44.816406 0.71875 C 46.019531 0.960938 47.210938 1.257812 48.386719 1.613281 C 49.5625 1.972656 50.714844 2.382812 51.851562 2.855469 C 52.984375 3.324219 54.09375 3.847656 55.175781 4.429688 C 56.261719 5.007812 57.3125 5.636719 58.332031 6.320312 C 59.355469 7.003906 60.339844 7.734375 61.289062 8.511719 C 62.238281 9.292969 63.148438 10.113281 64.015625 10.984375 C 64.886719 11.851562 65.707031 12.761719 66.488281 13.710938 C 67.265625 14.660156 67.996094 15.644531 68.679688 16.667969 C 69.363281 17.6875 69.992188 18.738281 70.570312 19.824219 C 71.152344 20.90625 71.675781 22.015625 72.144531 23.148438 C 72.617188 24.285156 73.027344 25.4375 73.386719 26.613281 C 73.742188 27.789062 74.039062 28.980469 74.28125 30.183594 C 74.519531 31.390625 74.699219 32.601562 74.820312 33.824219 C 74.941406 35.046875 75 36.273438 75 37.5 Z M 75 37.5 "/>
</clipPath>
<linearGradient id="linear0" gradientUnits="userSpaceOnUse" x1="0.00000000666634" y1="0.00000000660098" x2="1.004902" y2="0.995049" gradientTransform="matrix(74.999997,0,0,74.999997,0.0000015,-0.000001)">
<stop offset="0" style="stop-color:rgb(0%,89.399719%,71.398926%);stop-opacity:1;"/>
<stop offset="0.015625" style="stop-color:rgb(0.0717163%,89.250183%,71.583557%);stop-opacity:1;"/>
<stop offset="0.03125" style="stop-color:rgb(0.216675%,88.954163%,71.95282%);stop-opacity:1;"/>
<stop offset="0.046875" style="stop-color:rgb(0.361633%,88.658142%,72.322083%);stop-opacity:1;"/>
<stop offset="0.0625" style="stop-color:rgb(0.506592%,88.362122%,72.691345%);stop-opacity:1;"/>
<stop offset="0.078125" style="stop-color:rgb(0.65155%,88.064575%,73.059082%);stop-opacity:1;"/>
<stop offset="0.09375" style="stop-color:rgb(0.796509%,87.768555%,73.428345%);stop-opacity:1;"/>
<stop offset="0.109375" style="stop-color:rgb(0.941467%,87.472534%,73.797607%);stop-opacity:1;"/>
<stop offset="0.125" style="stop-color:rgb(1.086426%,87.174988%,74.16687%);stop-opacity:1;"/>
<stop offset="0.140625" style="stop-color:rgb(1.23291%,86.878967%,74.536133%);stop-opacity:1;"/>
<stop offset="0.15625" style="stop-color:rgb(1.377869%,86.582947%,74.905396%);stop-opacity:1;"/>
<stop offset="0.171875" style="stop-color:rgb(1.522827%,86.286926%,75.274658%);stop-opacity:1;"/>
<stop offset="0.1875" style="stop-color:rgb(1.667786%,85.98938%,75.642395%);stop-opacity:1;"/>
<stop offset="0.203125" style="stop-color:rgb(1.812744%,85.693359%,76.011658%);stop-opacity:1;"/>
<stop offset="0.21875" style="stop-color:rgb(1.957703%,85.397339%,76.38092%);stop-opacity:1;"/>
<stop offset="0.234375" style="stop-color:rgb(2.102661%,85.099792%,76.750183%);stop-opacity:1;"/>
<stop offset="0.25" style="stop-color:rgb(2.24762%,84.803772%,77.119446%);stop-opacity:1;"/>
<stop offset="0.265625" style="stop-color:rgb(2.394104%,84.507751%,77.488708%);stop-opacity:1;"/>
<stop offset="0.28125" style="stop-color:rgb(2.539062%,84.210205%,77.856445%);stop-opacity:1;"/>
<stop offset="0.296875" style="stop-color:rgb(2.684021%,83.914185%,78.225708%);stop-opacity:1;"/>
<stop offset="0.3125" style="stop-color:rgb(2.828979%,83.618164%,78.594971%);stop-opacity:1;"/>
<stop offset="0.328125" style="stop-color:rgb(2.973938%,83.322144%,78.964233%);stop-opacity:1;"/>
<stop offset="0.34375" style="stop-color:rgb(3.118896%,83.024597%,79.333496%);stop-opacity:1;"/>
<stop offset="0.359375" style="stop-color:rgb(3.263855%,82.728577%,79.702759%);stop-opacity:1;"/>
<stop offset="0.375" style="stop-color:rgb(3.408813%,82.432556%,80.072021%);stop-opacity:1;"/>
<stop offset="0.390625" style="stop-color:rgb(3.555298%,82.13501%,80.439758%);stop-opacity:1;"/>
<stop offset="0.40625" style="stop-color:rgb(3.700256%,81.838989%,80.809021%);stop-opacity:1;"/>
<stop offset="0.421875" style="stop-color:rgb(3.845215%,81.542969%,81.178284%);stop-opacity:1;"/>
<stop offset="0.4375" style="stop-color:rgb(3.990173%,81.246948%,81.547546%);stop-opacity:1;"/>
<stop offset="0.453125" style="stop-color:rgb(4.135132%,80.949402%,81.916809%);stop-opacity:1;"/>
<stop offset="0.46875" style="stop-color:rgb(4.28009%,80.653381%,82.286072%);stop-opacity:1;"/>
<stop offset="0.484375" style="stop-color:rgb(4.425049%,80.357361%,82.655334%);stop-opacity:1;"/>
<stop offset="0.497537" style="stop-color:rgb(4.570007%,80.059814%,83.023071%);stop-opacity:1;"/>
<stop offset="0.5" style="stop-color:rgb(4.64325%,79.911804%,83.207703%);stop-opacity:1;"/>
<stop offset="0.502463" style="stop-color:rgb(4.714966%,79.763794%,83.392334%);stop-opacity:1;"/>
<stop offset="0.515625" style="stop-color:rgb(4.788208%,79.615784%,83.576965%);stop-opacity:1;"/>
<stop offset="0.53125" style="stop-color:rgb(4.86145%,79.467773%,83.761597%);stop-opacity:1;"/>
<stop offset="0.546875" style="stop-color:rgb(5.006409%,79.171753%,84.130859%);stop-opacity:1;"/>
<stop offset="0.5625" style="stop-color:rgb(5.151367%,78.874207%,84.500122%);stop-opacity:1;"/>
<stop offset="0.578125" style="stop-color:rgb(5.296326%,78.578186%,84.869385%);stop-opacity:1;"/>
<stop offset="0.59375" style="stop-color:rgb(5.441284%,78.282166%,85.237122%);stop-opacity:1;"/>
<stop offset="0.609375" style="stop-color:rgb(5.586243%,77.984619%,85.606384%);stop-opacity:1;"/>
<stop offset="0.625" style="stop-color:rgb(5.731201%,77.688599%,85.975647%);stop-opacity:1;"/>
<stop offset="0.640625" style="stop-color:rgb(5.87616%,77.392578%,86.34491%);stop-opacity:1;"/>
<stop offset="0.65625" style="stop-color:rgb(6.022644%,77.096558%,86.714172%);stop-opacity:1;"/>
<stop offset="0.671875" style="stop-color:rgb(6.167603%,76.799011%,87.083435%);stop-opacity:1;"/>
<stop offset="0.6875" style="stop-color:rgb(6.312561%,76.502991%,87.452698%);stop-opacity:1;"/>
<stop offset="0.703125" style="stop-color:rgb(6.45752%,76.20697%,87.820435%);stop-opacity:1;"/>
<stop offset="0.71875" style="stop-color:rgb(6.602478%,75.909424%,88.189697%);stop-opacity:1;"/>
<stop offset="0.734375" style="stop-color:rgb(6.747437%,75.613403%,88.55896%);stop-opacity:1;"/>
<stop offset="0.75" style="stop-color:rgb(6.892395%,75.317383%,88.928223%);stop-opacity:1;"/>
<stop offset="0.765625" style="stop-color:rgb(7.037354%,75.021362%,89.297485%);stop-opacity:1;"/>
<stop offset="0.78125" style="stop-color:rgb(7.183838%,74.723816%,89.666748%);stop-opacity:1;"/>
<stop offset="0.796875" style="stop-color:rgb(7.328796%,74.427795%,90.034485%);stop-opacity:1;"/>
<stop offset="0.8125" style="stop-color:rgb(7.473755%,74.131775%,90.403748%);stop-opacity:1;"/>
<stop offset="0.828125" style="stop-color:rgb(7.618713%,73.834229%,90.77301%);stop-opacity:1;"/>
<stop offset="0.84375" style="stop-color:rgb(7.763672%,73.538208%,91.142273%);stop-opacity:1;"/>
<stop offset="0.859375" style="stop-color:rgb(7.90863%,73.242188%,91.511536%);stop-opacity:1;"/>
<stop offset="0.875" style="stop-color:rgb(8.053589%,72.946167%,91.880798%);stop-opacity:1;"/>
<stop offset="0.890625" style="stop-color:rgb(8.198547%,72.648621%,92.250061%);stop-opacity:1;"/>
<stop offset="0.90625" style="stop-color:rgb(8.343506%,72.3526%,92.617798%);stop-opacity:1;"/>
<stop offset="0.921875" style="stop-color:rgb(8.48999%,72.05658%,92.987061%);stop-opacity:1;"/>
<stop offset="0.9375" style="stop-color:rgb(8.634949%,71.759033%,93.356323%);stop-opacity:1;"/>
<stop offset="0.953125" style="stop-color:rgb(8.779907%,71.463013%,93.725586%);stop-opacity:1;"/>
<stop offset="0.96875" style="stop-color:rgb(8.924866%,71.166992%,94.094849%);stop-opacity:1;"/>
<stop offset="0.984375" style="stop-color:rgb(9.069824%,70.870972%,94.464111%);stop-opacity:1;"/>
<stop offset="1" style="stop-color:rgb(9.214783%,70.573425%,94.833374%);stop-opacity:1;"/>
</linearGradient>
<clipPath id="clip2">
  <path d="M 33 34 L 63 34 L 63 53.675781 L 33 53.675781 Z M 33 34 "/>
</clipPath>
<clipPath id="clip3">
  <path d="M 62 24.425781 L 72.957031 24.425781 L 72.957031 35 L 62 35 Z M 62 24.425781 "/>
</clipPath>
<clipPath id="clip4">
  <path d="M 3.207031 24.425781 L 34 24.425781 L 34 53.675781 L 3.207031 53.675781 Z M 3.207031 24.425781 "/>
</clipPath>
</defs>
<g id="surface1">
<g clip-path="url(#clip1)" clip-rule="nonzero">
<rect x="0" y="0" width="75" height="74.999997" style="fill:url(#linear0);stroke:none;"/>
</g>
<g clip-path="url(#clip2)" clip-rule="nonzero">
<path style=" stroke:none;fill-rule:nonzero;fill:rgb(100%,100%,100%);fill-opacity:1;" d="M 33.183594 39.050781 C 33.183594 36.347656 35.386719 34.175781 38.089844 34.175781 C 40.792969 34.175781 42.992188 36.363281 42.992188 39.050781 C 42.992188 42.707031 44.21875 43.925781 47.894531 43.925781 C 51.570312 43.925781 52.796875 42.707031 52.796875 39.050781 C 52.796875 36.347656 55 34.175781 57.699219 34.175781 C 60.402344 34.175781 62.605469 36.363281 62.605469 39.050781 C 62.605469 41.75 60.402344 43.925781 57.699219 43.925781 C 54.023438 43.925781 52.796875 45.144531 52.796875 48.800781 C 52.796875 51.5 50.597656 53.675781 47.894531 53.675781 C 45.191406 53.675781 42.992188 51.488281 42.992188 48.800781 C 42.992188 45.144531 41.765625 43.925781 38.089844 43.925781 C 37.765625 43.925781 37.445312 43.894531 37.132812 43.832031 C 36.816406 43.769531 36.507812 43.679688 36.210938 43.554688 C 35.914062 43.433594 35.628906 43.285156 35.363281 43.105469 C 35.09375 42.929688 34.847656 42.726562 34.617188 42.5 C 34.390625 42.273438 34.1875 42.027344 34.007812 41.761719 C 33.828125 41.496094 33.679688 41.214844 33.554688 40.917969 C 33.433594 40.621094 33.339844 40.316406 33.277344 40 C 33.214844 39.6875 33.183594 39.371094 33.183594 39.050781 Z M 33.183594 39.050781 "/>
</g>
<g clip-path="url(#clip3)" clip-rule="nonzero">
<path style=" stroke:none;fill-rule:nonzero;fill:rgb(100%,100%,100%);fill-opacity:1;" d="M 62.632812 29.285156 C 62.632812 28.964844 62.664062 28.648438 62.726562 28.332031 C 62.789062 28.019531 62.882812 27.714844 63.007812 27.417969 C 63.128906 27.125 63.28125 26.84375 63.460938 26.578125 C 63.636719 26.308594 63.84375 26.0625 64.070312 25.835938 C 64.296875 25.613281 64.542969 25.410156 64.8125 25.230469 C 65.082031 25.054688 65.363281 24.902344 65.660156 24.78125 C 65.957031 24.660156 66.265625 24.566406 66.578125 24.503906 C 66.894531 24.441406 67.214844 24.410156 67.535156 24.410156 C 67.859375 24.410156 68.175781 24.441406 68.492188 24.503906 C 68.808594 24.566406 69.117188 24.660156 69.414062 24.78125 C 69.710938 24.902344 69.992188 25.054688 70.261719 25.230469 C 70.527344 25.410156 70.777344 25.613281 71.003906 25.835938 C 71.230469 26.0625 71.433594 26.308594 71.613281 26.578125 C 71.792969 26.84375 71.941406 27.125 72.066406 27.417969 C 72.191406 27.714844 72.28125 28.019531 72.34375 28.332031 C 72.40625 28.648438 72.441406 28.964844 72.441406 29.285156 C 72.441406 29.605469 72.40625 29.921875 72.34375 30.234375 C 72.28125 30.550781 72.191406 30.855469 72.066406 31.152344 C 71.941406 31.445312 71.792969 31.726562 71.613281 31.992188 C 71.433594 32.257812 71.230469 32.503906 71.003906 32.730469 C 70.777344 32.957031 70.527344 33.160156 70.261719 33.339844 C 69.992188 33.515625 69.710938 33.667969 69.414062 33.789062 C 69.117188 33.910156 68.808594 34.003906 68.492188 34.066406 C 68.175781 34.128906 67.859375 34.160156 67.535156 34.160156 C 67.214844 34.160156 66.894531 34.128906 66.578125 34.066406 C 66.265625 34.003906 65.957031 33.910156 65.660156 33.789062 C 65.363281 33.667969 65.082031 33.515625 64.8125 33.339844 C 64.542969 33.160156 64.296875 32.957031 64.070312 32.730469 C 63.84375 32.503906 63.636719 32.257812 63.460938 31.992188 C 63.28125 31.726562 63.128906 31.445312 63.007812 31.152344 C 62.882812 30.855469 62.789062 30.550781 62.726562 30.234375 C 62.664062 29.921875 62.632812 29.605469 62.632812 29.285156 Z M 62.632812 29.285156 "/>
</g>
<g clip-path="url(#clip4)" clip-rule="nonzero">
<path style=" stroke:none;fill-rule:nonzero;fill:rgb(100%,100%,100%);fill-opacity:1;" d="M 3.722656 48.8125 C 3.722656 46.113281 5.921875 43.9375 8.625 43.9375 C 12.304688 43.9375 13.527344 42.71875 13.527344 39.0625 C 13.527344 36.363281 15.730469 34.1875 18.433594 34.1875 C 22.109375 34.1875 23.335938 32.96875 23.335938 29.3125 C 23.335938 26.613281 25.535156 24.4375 28.238281 24.4375 C 30.941406 24.4375 33.140625 26.628906 33.140625 29.3125 C 33.140625 32.015625 30.941406 34.1875 28.238281 34.1875 C 24.5625 34.1875 23.335938 35.40625 23.335938 39.0625 C 23.335938 41.765625 21.132812 43.9375 18.433594 43.9375 C 14.753906 43.9375 13.527344 45.15625 13.527344 48.8125 C 13.527344 51.515625 11.328125 53.6875 8.625 53.6875 C 5.921875 53.6875 3.722656 51.5 3.722656 48.8125 Z M 3.722656 48.8125 "/>
</g>
</g>
</svg>
